<?xml version="1.0" encoding="UTF-8" standalone="no"?>
<svg
   id="Layer_1"
   data-name="Layer 1"
   viewBox="0 0 24 24"
   version="1.1"
   sodipodi:docname="departamento.svg"
   inkscape:version="1.2.2 (732a01da63, 2022-12-09)"
   xmlns:inkscape="http://www.inkscape.org/namespaces/inkscape"
   xmlns:sodipodi="http://sodipodi.sourceforge.net/DTD/sodipodi-0.dtd"
   xmlns="http://www.w3.org/2000/svg"
   xmlns:svg="http://www.w3.org/2000/svg">
  <defs
     id="defs7" />
  <sodipodi:namedview
     id="namedview5"
     pagecolor="#ffffff"
     bordercolor="#111111"
     borderopacity="1"
     inkscape:showpageshadow="0"
     inkscape:pageopacity="0"
     inkscape:pagecheckerboard="1"
     inkscape:deskcolor="#d1d1d1"
     showgrid="false"
     inkscape:zoom="33.5"
     inkscape:cx="12.014925"
     inkscape:cy="12.014925"
     inkscape:window-width="1920"
     inkscape:window-height="991"
     inkscape:window-x="-9"
     inkscape:window-y="-9"
     inkscape:window-maximized="1"
     inkscape:current-layer="Layer_1" />
  <path
     d="m10.5,6h3c1.103,0,2-.897,2-2v-2c0-1.103-.897-2-2-2h-3c-1.103,0-2,.897-2,2v2c0,1.103.897,2,2,2Zm0-4h3v2h-3v-2Zm3,16h-3c-1.103,0-2,.897-2,2v2c0,1.103.897,2,2,2h3c1.103,0,2-.897,2-2v-2c0-1.103-.897-2-2-2Zm0,4h-3v-2h3v2Zm8.5-4h-3c-1.103,0-2,.897-2,2v2c0,1.103.897,2,2,2h3c1.103,0,2-.897,2-2v-2c0-1.103-.897-2-2-2Zm0,4h-3v-2h3v2Zm-17-4h-3c-1.103,0-2,.897-2,2v2c0,1.103.897,2,2,2h3c1.103,0,2-.897,2-2v-2c0-1.103-.897-2-2-2Zm0,4h-3v-2h3v2Zm-.5-6h-2v-2.5c0-1.379,1.122-2.5,2.5-2.5h6v-3h2v3h6c1.379,0,2.5,1.121,2.5,2.5v2.5h-2v-2.5c0-.275-.225-.5-.5-.5h-6v3h-2v-3h-6c-.276,0-.5.225-.5.5v2.5Z"
     id="path2"
     style="fill:#ffffff;fill-opacity:1" />
</svg>
