<?xml version="1.0" encoding="UTF-8" standalone="no"?>
<svg
   id="Layer_1"
   data-name="Layer 1"
   viewBox="0 0 24 24"
   width="512"
   height="512"
   version="1.1"
   sodipodi:docname="mapa.svg"
   inkscape:version="1.2.2 (732a01da63, 2022-12-09)"
   xmlns:inkscape="http://www.inkscape.org/namespaces/inkscape"
   xmlns:sodipodi="http://sodipodi.sourceforge.net/DTD/sodipodi-0.dtd"
   xmlns="http://www.w3.org/2000/svg"
   xmlns:svg="http://www.w3.org/2000/svg">
  <defs
     id="defs7" />
  <sodipodi:namedview
     id="namedview5"
     pagecolor="#ffffff"
     bordercolor="#111111"
     borderopacity="1"
     inkscape:showpageshadow="0"
     inkscape:pageopacity="0"
     inkscape:pagecheckerboard="1"
     inkscape:deskcolor="#d1d1d1"
     showgrid="false"
     inkscape:zoom="1.5703125"
     inkscape:cx="256.31841"
     inkscape:cy="256.31841"
     inkscape:window-width="1920"
     inkscape:window-height="991"
     inkscape:window-x="-9"
     inkscape:window-y="-9"
     inkscape:window-maximized="1"
     inkscape:current-layer="Layer_1" />
  <path
     d="M12,12A4,4,0,1,0,8,8,4,4,0,0,0,12,12Zm0-6a2,2,0,1,1-2,2A2,2,0,0,1,12,6ZM16,22.03l8,1.948V13.483a3,3,0,0,0-2.133-2.871l-2.1-.7A8.037,8.037,0,0,0,20,8.006a8,8,0,0,0-16,0,8.111,8.111,0,0,0,.1,1.212A2.992,2.992,0,0,0,0,12v9.752l7.983,2.281ZM7.757,3.764a6,6,0,0,1,8.493,8.477L12,16.4,7.757,12.249a6,6,0,0,1,0-8.485ZM2,12a.985.985,0,0,1,.446-.832A1.007,1.007,0,0,1,3.43,11.1l1.434.518a8.036,8.036,0,0,0,1.487,2.056L12,19.2l5.657-5.533a8.032,8.032,0,0,0,1.4-1.882l2.217.741a1,1,0,0,1,.725.961v7.949L16,19.97l-7.98,2L2,20.246Z"
     id="path2"
     style="fill:#ffffff;fill-opacity:1" />
</svg>
